<svg xmlns="http://www.w3.org/2000/svg" width="592.7mm" height="188.5mm" viewBox="0 0 1680.2 534.2"><title>Asset 1</title><path d="M280.2,446.9v68.1q-51.8,19.3-101.3,19.3-81.7,0-130.3-48.4T0,356.1q0-82,47.3-132.3t124.4-50.3q26.8,0,48.2,5.1t52.7,19.1v73.4q-52.2-33.3-96.8-33.3-46.5,0-76.4,32.7T69.6,353.9q0,53.3,32.3,84.7T189,469.9Q228.7,469.9,280.2,446.9Z" style="fill:#fff"/><path d="M411.8,180.3v79.8l3.8-6q49.9-80.5,99.8-80.5,38.9,0,81.3,39.3l-36.3,60.5q-35.9-34-66.5-34-33.3,0-57.7,31.8t-24.4,75.2V528.2H342.6V180.3Z" style="fill:#fff"/><path d="M1243.8,528.2V483.9a160.6,160.6,0,0,1-50.1,37.1q-28.2,13.2-56.1,13.2a117,117,0,0,1-60.7-16.4,106.8,106.8,0,0,1-42-44.6q-14.2-28.2-14.2-93.6V180.3h68.8V378.8q0,54.8,15.7,76.6t55,21.7q49.1,0,83.6-48V180.3h68.8V528.2Z" style="fill:#fff"/><path d="M1611,30.5,1680.2,0V528.2H1533.1q-77.1,0-123.1-48.8t-45.9-130.8q0-76.8,48.2-126.3t123.1-49.5q34.8,0,75.6,14.7Zm0,438.7V248.8q-32.1-16.2-65-16.3-51.4,0-81.8,33.6t-30.4,90.7q0,53.7,26.5,82.8,15.9,17.4,33.6,23.4t63.9,6Z" style="fill:#fff"/><path d="M768.4,468.2q-35.9-5.6-60.9-29.8Q675,406.8,675,356.9t31.8-82.8c16.8-17.2,37.4-27.5,61.6-31V180.9q-64.7,6.5-109.9,49.6-53.1,50.9-53.1,127.2T658,483.7q45.5,43.7,110.4,49.5Z" style="fill:#fff"/><path d="M923.7,230.8C895,202.7,860,186.4,819.1,181.4v63.7a112,112,0,0,1,53.6,29q33.6,32.5,33.7,82T874,438c-15.2,15-33.6,24.7-54.9,29.1v65.1c40.5-5.2,75.2-21,103.8-47.6q53.3-49.7,53.3-125Q976.3,282,923.7,230.8Z" style="fill:#fff"/></svg>