<?xml version="1.0" encoding="utf-8"?>
<!-- Generator: Adobe Illustrator 16.0.0, SVG Export Plug-In . SVG Version: 6.00 Build 0)  -->
<!DOCTYPE svg PUBLIC "-//W3C//DTD SVG 1.1//EN" "http://www.w3.org/Graphics/SVG/1.1/DTD/svg11.dtd">
<svg version="1.1" id="Layer_1" xmlns="http://www.w3.org/2000/svg" xmlns:xlink="http://www.w3.org/1999/xlink" x="0px" y="0px"
	 width="1937.01px" height="1097.01px" viewBox="0 0 1937.01 1097.01" enable-background="new 0 0 1937.01 1097.01"
	 xml:space="preserve">
<g>
	<defs>
		<rect id="SVGID_1_" y="0.002" width="1937.008" height="1097.008"/>
	</defs>
	<clipPath id="SVGID_2_">
		<use xlink:href="#SVGID_1_"  overflow="visible"/>
	</clipPath>
	<path clip-path="url(#SVGID_2_)" fill="#FFFFFF" d="M408.552,705.106v68.055c-34.538,12.853-68.313,19.278-101.324,19.278
		c-54.441,0-97.864-16.124-130.251-48.393c-32.386-32.257-48.579-75.481-48.579-129.685c0-54.688,15.747-98.796,47.261-132.322
		c31.504-33.517,72.963-50.286,124.379-50.286c17.899,0,33.963,1.706,48.213,5.107c14.23,3.401,31.812,9.768,52.735,19.089v73.35
		c-34.776-22.182-67.044-33.269-96.783-33.269c-31.008,0-56.463,10.898-76.375,32.704c-19.912,21.796-29.868,49.591-29.868,83.366
		c0,35.53,10.779,63.762,32.327,84.685c21.548,20.924,50.593,31.375,87.144,31.375C343.898,728.161,374.271,720.477,408.552,705.106
		"/>
	<path clip-path="url(#SVGID_2_)" fill="#FFFFFF" d="M540.23,438.557v79.776l3.778-6.049c33.279-53.686,66.548-80.53,99.817-80.53
		c25.951,0,53.052,13.11,81.284,39.318l-36.294,60.5c-23.947-22.689-46.13-34.033-66.538-34.033
		c-22.182,0-41.4,10.591-57.663,31.762c-16.253,21.17-24.384,46.249-24.384,75.234V786.39h-69.186V438.557H540.23z"/>
	<path clip-path="url(#SVGID_2_)" fill="#FFFFFF" d="M1372.155,786.39v-44.235c-14.626,15.875-31.325,28.23-50.097,37.057
		c-18.781,8.815-37.493,13.229-56.146,13.229c-21.925,0-42.153-5.484-60.678-16.441c-18.533-10.968-32.515-25.842-41.965-44.614
		c-9.46-18.781-14.18-49.968-14.18-93.579V438.557h68.809v198.494c0,36.551,5.225,62.066,15.688,76.563
		c10.462,14.498,28.797,21.736,55.016,21.736c32.763,0,60.607-16.005,83.554-48.015V438.557h68.81V786.39H1372.155z"/>
	<path clip-path="url(#SVGID_2_)" fill="#FFFFFF" d="M1739.424,288.683l69.187-30.463V786.39h-147.068
		c-51.416,0-92.439-16.253-123.061-48.768c-30.622-32.516-45.942-76.118-45.942-130.816c0-51.168,16.074-93.251,48.213-126.283
		c32.128-33.012,73.152-49.522,123.061-49.522c23.185,0,48.392,4.908,75.611,14.745V288.683z M1739.424,727.408V506.989
		c-21.429-10.828-43.096-16.253-65.03-16.253c-34.28,0-61.561,11.216-81.85,33.646c-20.288,22.441-30.433,52.686-30.433,90.744
		c0,35.788,8.816,63.385,26.467,82.791c10.58,11.603,21.796,19.416,33.646,23.442c11.84,4.036,33.14,6.049,63.89,6.049H1739.424z"/>
	<path clip-path="url(#SVGID_2_)" fill="#FFFFFF" d="M896.77,726.401c-23.928-3.753-44.241-13.645-60.886-29.803
		c-21.677-21.043-32.515-48.203-32.515-81.472c0-33.527,10.59-61.124,31.761-82.801c16.799-17.2,37.385-27.458,61.64-31.013v-62.23
		c-43.101,4.329-79.766,20.775-109.852,49.572c-35.411,33.903-53.112,76.315-53.112,127.225c0,50.415,17.512,92.439,52.546,126.086
		c30.359,29.158,67.188,45.634,110.418,49.525V726.401z"/>
	<path clip-path="url(#SVGID_2_)" fill="#FFFFFF" d="M1052.138,489.031c-28.787-28.063-63.722-44.4-104.597-49.403v63.707
		c20.482,4.745,38.381,14.324,53.558,28.99c22.431,21.677,33.656,49.026,33.656,82.039c0,33.269-10.779,60.558-32.327,81.857
		c-15.227,15.048-33.567,24.662-54.887,29.075v65.066c40.543-5.201,75.23-20.953,103.843-47.644
		c35.54-33.14,53.31-74.789,53.31-124.955C1104.693,566.1,1087.172,523.193,1052.138,489.031"/>
</g>
</svg>
